<?xml version="1.0" encoding="UTF-8"?>
<svg width="1200pt" height="1200pt" version="1.1" viewBox="0 0 1200 1200" xmlns="http://www.w3.org/2000/svg">
 <path d="m1087.5 456.84c20.719 33.094 22.172 73.125 3.8906 104.48-21.234 36.375-64.734 55.031-122.86 52.312-2.25-0.375-4.2656 0.98438-5.3906 2.8594s-1.1719 4.2188-0.09375 6.1406c17.953 31.594 26.719 73.078 35.156 113.2 7.875 37.359 15.328 72.609 29.719 95.344 3.375 5.2969 4.6406 11.25 3.6562 16.688-9.7969 53.25-5.5312 128.06-0.14062 194.26 0.46875 5.9531-1.4531 11.625-5.5312 16.031-4.0312 4.4062-9.5625 6.7969-15.516 6.7969h-70.406c-3.9844 0-7.5-1.9688-9.6094-5.3438s-2.2969-7.5469-0.5625-11.156c5.5781-11.344 18.281-20.156 37.828-26.156 2.6719-0.84375 4.4062-3.375 4.2188-6.1875l-6.9375-88.5c-1.8281-23.344-16.266-55.219-32.203-70.969-113.06-112.03-256.13-156.79-373.4-116.72-107.39 36.562-177.19 137.21-196.6 283.26-3.2344 24.234-24 42.375-48.469 42.375h-0.46875l-68.578-0.65625c-4.2656 0-8.25-1.9219-10.922-5.25-2.7188-3.4219-3.7031-7.8281-2.7188-12.094 3.5156-15.234 23.203-43.406 47.438-43.406 0.79688 0 1.5938 0 2.3906 0.09375 2.8594 0.46875 5.2031-1.4062 6.0938-3.9844 44.906-126.28 11.625-256.4 0.375-293.26-0.65625-2.1094-2.3906-3.6562-4.5-4.125-2.1562-0.51562-4.3594 0.32813-5.7656 1.9688-9.8906 11.625-15.609 28.734-19.547 47.156-12.75-36.797-11.391-65.812-10.031-94.031 1.5469-33.047 3.0469-64.219-19.688-101.62-1.0781-1.7812-3-2.8594-5.0625-2.9062-1.875 0.046876-3.9844 1.0312-5.1094 2.7188-6.6094 10.172-11.297 22.5-14.25 37.406-26.578-64.125-24.938-121.03 4.875-173.44 1.3125-2.3438 0.9375-5.25-0.9375-7.1719-1.875-1.9219-4.7812-2.3438-7.125-1.0781-16.359 8.8125-33.141 16.172-44.719 10.359-9.8906-4.9219-16.828-19.781-20.531-44.156-0.1875-1.2656-0.79688-2.4375-1.6875-3.375-34.078-33.938-39.094-51.703-37.312-60.656 1.2188-5.9062 5.9531-10.5 15.328-14.391l48.609-28.922c1.125-0.65625 2.0156-1.7344 2.5312-2.9531 7.125-18.094 24.703-32.906 52.219-44.062 2.4375-0.98437 3.9844-3.4688 3.7031-6.0938-2.4375-25.781 1.7812-44.812 12.938-58.219 10.406-12.469 26.859-20.156 50.109-23.344l-4.1719 13.219c-0.70312 2.2031-0.046875 4.5938 1.6406 6.1875s4.1719 2.0156 6.2812 1.1719c66.844-26.578 128.44-14.203 187.92 37.781l-30.328-0.75c-3.2812-0.14063-5.4375 1.9688-6.0469 4.7812-0.5625 2.8125 0.9375 5.7188 3.6562 6.75 73.781 29.625 126.56 86.062 160.97 172.31l-23.953-13.078c-2.1562-1.1719-4.875-0.89062-6.75 0.70312s-2.5781 4.2188-1.7812 6.5625c26.906 76.219 84.891 122.68 172.69 138.19 12.281 1.5469 25.125 2.7656 38.062 3.9844 53.578 5.0625 109.03 10.266 138.74 41.531 34.922 38.344 88.688 33.422 121.55 9.3281 32.25-23.672 40.594-60.562 20.812-94.406-27.516-37.781-65.719-52.172-113.77-42.844-0.79688 0.1875-1.5469 0.46875-2.2031 0.9375-29.062 19.453-51.75 3.5156-86.062-20.578-13.359-9.375-28.031-19.688-45.047-29.109 1.3594-0.23438 2.7188-0.42188 4.0781-0.65625 42.328-6.7969 90.281-14.531 139.55 21.938 1.1719 0.84375 2.5312 1.2188 4.0312 1.1719 55.078-4.2656 100.97 16.078 125.72 55.641z" fill="#e4c159"/>
</svg>
